<svg xmlns="http://www.w3.org/2000/svg" width="36" height="35" viewBox="0 0 36 35" fill="none">
  <path d="M17.5703 0C7.90662 0 0 7.88905 0 17.6054C0 26.3906 6.43072 33.6822 14.8293 35V22.7008H10.3665V17.6054H14.8293V13.7224C14.8293 9.31224 17.4473 6.88754 21.4709 6.88754C23.386 6.88754 25.389 7.22138 25.389 7.22138V11.5612H23.1752C20.9965 11.5612 20.3112 12.9141 20.3112 14.3022V17.6054H25.1958L24.4051 22.7008H20.3112V35C24.4515 34.346 28.2217 32.2336 30.9411 29.0437C33.6604 25.854 35.15 21.797 35.1405 17.6054C35.1405 7.88905 27.2339 0 17.5703 0Z" fill="#EDEDED"/>
</svg>