<svg xmlns="http://www.w3.org/2000/svg" width="36" height="35" viewBox="0 0 36 35" fill="none">
  <path fill-rule="evenodd" clip-rule="evenodd" d="M10.2719 0.214775C7.4231 0.343312 4.95392 1.0398 2.96011 3.02519C0.959341 5.02101 0.271497 7.49996 0.14264 10.3191C0.0625387 12.0787 -0.40585 25.3719 0.952378 28.8581C1.86831 31.21 3.67227 33.0183 6.04569 33.9372C7.15316 34.368 8.41739 34.6596 10.2719 34.7447C25.7783 35.4464 31.5264 35.0644 33.9503 28.8581C34.3804 27.7534 34.6764 26.4902 34.7583 24.6403C35.467 9.09421 34.6434 5.72449 31.9409 3.02519C29.7973 0.886943 27.2759 -0.568609 10.2719 0.214775ZM10.4147 31.6181C8.71687 31.5417 7.79572 31.2588 7.18104 31.0208C5.63475 30.4198 4.4733 29.2632 3.87602 27.7259C2.84168 25.077 3.18473 12.4959 3.27702 10.4601C3.36757 8.46602 3.77155 6.64357 5.17854 5.23661C6.91985 3.4996 9.16961 2.64831 24.488 3.33964C26.487 3.42996 28.3137 3.83311 29.7241 5.23661C31.4655 6.9736 32.3292 9.24067 31.6257 24.5002C31.549 26.1938 31.2652 27.1127 31.0267 27.7259C29.4508 31.7644 25.8253 32.3251 10.4147 31.6181ZM24.6569 8.20681C24.6569 9.35672 25.592 10.2918 26.7465 10.2918C27.901 10.2918 28.8378 9.35672 28.8378 8.20681C28.8378 7.05693 27.901 6.12271 26.7465 6.12271C25.592 6.12271 24.6569 7.05693 24.6569 8.20681ZM8.50967 17.4789C8.50967 22.405 12.513 26.3989 17.4513 26.3989C22.3897 26.3989 26.393 22.405 26.393 17.4789C26.393 12.5527 22.3897 8.56143 17.4513 8.56143C12.513 8.56143 8.50967 12.5527 8.50967 17.4789ZM11.6475 17.4789C11.6475 14.2828 14.2456 11.6897 17.4513 11.6897C20.6571 11.6897 23.2552 14.2828 23.2552 17.4789C23.2552 20.6767 20.6571 23.2706 17.4513 23.2706C14.2456 23.2706 11.6475 20.6767 11.6475 17.4789Z" fill="#EDEDED"/>
</svg>