<svg xmlns="http://www.w3.org/2000/svg" width="150" height="150" viewBox="0 0 150 150" fill="none">
  <path fill-rule="evenodd" clip-rule="evenodd" d="M53.8464 66.7742L73.0777 76.4514V150L53.8464 140.323L19.2304 78.3876L19.2359 122.906C19.2359 122.906 8.68071 117.594 3.2081 114.84C1.24231 113.851 0 111.828 0 109.616V39.6771L19.3163 49.3974L53.8464 113.226V66.7742Z" fill="#EDEDED"/>
  <path fill-rule="evenodd" clip-rule="evenodd" d="M76.9223 150V76.4514L150 39.6771L149.998 72.5809L130.769 82.2581L130.77 68.7095L95.2383 86.5901L96.1545 120.969L130.77 103.549L130.769 90L149.998 80.3228C149.998 80.3228 149.999 101.072 150 109.615C150 111.828 148.758 113.851 146.792 114.84C132.692 121.936 76.9223 150 76.9223 150Z" fill="#EDEDED"/>
  <path fill-rule="evenodd" clip-rule="evenodd" d="M36.5929 54.221L36.5756 54.2301L1.92212 36.7743L23.0763 26.1291L38.461 33.871L46.1533 29.9996L30.7686 22.2577L46.1542 14.5157L61.538 22.2577L69.2011 18.3715L53.8466 10.6452L74.9998 0L148.077 36.7743L111.56 55.1872L74.9998 73.5477L38.4454 55.1716L40.3838 56.1286L36.5929 54.221ZM94.2311 30.9676L63.4608 46.4515L73.6999 51.6035C76.9391 53.2336 80.7528 53.2336 83.992 51.6035L103.521 41.7765C104.675 41.1955 105.404 40.0086 105.404 38.7095C105.404 37.4105 104.675 36.2227 103.521 35.6426L94.2311 30.9676Z" fill="#EDEDED"/>
  <path fill-rule="evenodd" clip-rule="evenodd" d="M36.5929 54.221L36.5756 54.2301L1.92212 36.7743L23.0763 26.1291L38.461 33.871L46.1533 29.9996L30.7686 22.2577L46.1542 14.5157L61.538 22.2577L69.2011 18.3715L53.8466 10.6452L74.9998 0L148.077 36.7743L111.56 55.1872L74.9998 73.5477L38.4454 55.1716L40.3838 56.1286L36.5929 54.221ZM94.2311 30.9676L63.4608 46.4515L73.6999 51.6035C76.9391 53.2336 80.7528 53.2336 83.992 51.6035L103.521 41.7765C104.675 41.1955 105.404 40.0086 105.404 38.7095C105.404 37.4105 104.675 36.2227 103.521 35.6426L94.2311 30.9676Z" fill="#EDEDED"/>
</svg>