<svg xmlns="http://www.w3.org/2000/svg" width="38" height="30" viewBox="0 0 38 30" fill="none">
  <path d="M4.33972 4.15371C3.67502 3.65926 2.73536 3.79728 2.24091 4.46197C1.74647 5.12666 1.88448 6.06633 2.54917 6.56077L3.44444 5.35724L4.33972 4.15371ZM15.5 14.325L14.6047 15.5285L14.6047 15.5285L15.5 14.325ZM22.5 14.325L23.3953 15.5285L23.3953 15.5285L22.5 14.325ZM35.4508 6.56067C36.1155 6.06622 36.2535 5.12656 35.7591 4.46187C35.2646 3.79718 34.325 3.65917 33.6603 4.15362L34.5556 5.35714L35.4508 6.56067ZM3.44444 5.35724L2.54917 6.56077L14.6047 15.5285L15.5 14.325L16.3953 13.1215L4.33972 4.15371L3.44444 5.35724ZM15.5 14.325L14.6047 15.5285C17.2103 17.4667 20.7897 17.4667 23.3953 15.5285L22.5 14.325L21.6047 13.1215C20.062 14.269 17.938 14.269 16.3953 13.1215L15.5 14.325ZM22.5 14.325L23.3953 15.5285L35.4508 6.56067L34.5556 5.35714L33.6603 4.15362L21.6047 13.1215L22.5 14.325ZM5.38889 1.5V3H32.6111V1.5V0H5.38889V1.5ZM32.6111 1.5V3C33.9421 3 35 4.0669 35 5.35714H36.5H38C38 2.38691 35.5757 0 32.6111 0V1.5ZM36.5 5.35714H35V24.6429H36.5H38V5.35714H36.5ZM36.5 24.6429H35C35 25.9331 33.9421 27 32.6111 27V28.5V30C35.5757 30 38 27.6131 38 24.6429H36.5ZM32.6111 28.5V27H5.38889V28.5V30H32.6111V28.5ZM5.38889 28.5V27C4.05793 27 3 25.9331 3 24.6429H1.5H0C0 27.6131 2.4243 30 5.38889 30V28.5ZM1.5 24.6429H3V5.35714H1.5H0V24.6429H1.5ZM1.5 5.35714H3C3 4.0669 4.05793 3 5.38889 3V1.5V0C2.4243 0 0 2.38691 0 5.35714H1.5Z" fill="#EDEDED"/>
</svg>